<svg width="1164" height="268" viewBox="0 0 1164 268" fill="none" xmlns="http://www.w3.org/2000/svg">
<path fill-rule="evenodd" clip-rule="evenodd" d="M35.9493 95.3797H179.747C185.467 95.3797 190.953 97.6522 194.998 101.697C199.044 105.742 201.316 111.229 201.316 116.949V188.848C201.316 194.569 199.044 200.055 194.998 204.1C190.953 208.145 185.467 210.417 179.747 210.417H107.848C106.903 210.416 105.967 210.6 105.094 210.961C104.22 211.321 103.426 211.85 102.757 212.517L71.8986 243.39V217.607C71.8986 215.7 71.1411 213.872 69.7927 212.523C68.4444 211.175 66.6156 210.417 64.7087 210.417H35.9493C30.2287 210.417 24.7424 208.145 20.6973 204.1C16.6522 200.055 14.3797 194.569 14.3797 188.848V116.949C14.3797 111.229 16.6522 105.742 20.6973 101.697C24.7424 97.6522 30.2287 95.3797 35.9493 95.3797V95.3797ZM179.747 81H35.9493C26.415 81 17.2711 84.7875 10.5293 91.5293C3.78751 98.2711 4.76837e-06 107.415 4.76837e-06 116.949V188.848C4.76837e-06 193.569 0.929858 198.244 2.73648 202.605C4.5431 206.967 7.19111 210.93 10.5293 214.268C13.8675 217.606 17.8305 220.254 22.1921 222.061C26.5537 223.867 31.2284 224.797 35.9493 224.797H57.5189V260.746C57.5163 262.17 57.9366 263.563 58.7265 264.748C59.5163 265.932 60.6402 266.856 61.9556 267.401C63.2709 267.946 64.7186 268.089 66.1149 267.81C67.5113 267.532 68.7936 266.845 69.7992 265.837L110.825 224.797H179.747C189.281 224.797 198.425 221.01 205.166 214.268C211.908 207.526 215.696 198.382 215.696 188.848V116.949C215.696 107.415 211.908 98.2711 205.166 91.5293C198.425 84.7875 189.281 81 179.747 81V81Z" fill="#8F249E"/>
<path d="M332.655 62.7707C331.106 59.1843 328.873 55.9345 326.08 53.2029C323.285 50.4632 319.99 48.2861 316.374 46.7898C312.624 45.232 308.602 44.4347 304.541 44.4441C298.844 44.4441 293.286 46.004 288.456 48.9506C287.301 49.6555 286.203 50.4297 285.163 51.2732C284.123 50.4297 283.025 49.6555 281.87 48.9506C277.04 46.004 271.481 44.4441 265.785 44.4441C261.683 44.4441 257.708 45.2298 253.952 46.7898C250.324 48.2919 247.054 50.4528 244.246 53.2029C241.449 55.9314 239.215 59.182 237.671 62.7707C236.065 66.503 235.244 70.4665 235.244 74.5454C235.244 78.3933 236.03 82.403 237.59 86.482C238.896 89.8908 240.768 93.4267 243.16 96.9973C246.95 102.648 252.161 108.541 258.632 114.515C269.355 124.418 279.975 131.259 280.425 131.536L283.164 133.292C284.377 134.066 285.937 134.066 287.15 133.292L289.889 131.536C290.34 131.247 300.947 124.418 311.682 114.515C318.153 108.541 323.364 102.648 327.155 96.9973C329.547 93.4267 331.43 89.8908 332.724 86.482C334.284 82.403 335.07 78.3933 335.07 74.5454C335.082 70.4665 334.261 66.503 332.655 62.7707V62.7707Z" fill="#CC2277" fill-opacity="0.8"/>
<path fill-rule="evenodd" clip-rule="evenodd" d="M362.5 17.3834H188.5C181.578 17.3834 174.939 20.1306 170.045 25.0206C165.15 29.9107 162.4 36.543 162.4 43.4585V130.376C162.4 137.291 165.15 143.923 170.045 148.814C174.939 153.704 181.578 156.451 188.5 156.451H275.5C276.643 156.449 277.776 156.672 278.833 157.107C279.89 157.543 280.85 158.182 281.66 158.989L319 196.311V165.142C319 162.837 319.917 160.627 321.548 158.996C323.18 157.366 325.393 156.451 327.7 156.451H362.5C369.422 156.451 376.061 153.704 380.955 148.814C385.85 143.923 388.6 137.291 388.6 130.376V43.4585C388.6 36.543 385.85 29.9107 380.955 25.0206C376.061 20.1306 369.422 17.3834 362.5 17.3834V17.3834ZM188.5 0H362.5C374.037 0 385.101 4.57865 393.259 12.7287C401.417 20.8788 406 31.9326 406 43.4585V130.376C406 136.083 404.875 141.734 402.689 147.006C400.503 152.279 397.298 157.07 393.259 161.105C389.22 165.141 384.424 168.342 379.147 170.526C373.869 172.71 368.212 173.834 362.5 173.834H336.4V217.293C336.403 219.014 335.895 220.698 334.939 222.13C333.983 223.562 332.623 224.678 331.031 225.337C329.44 225.997 327.688 226.169 325.998 225.832C324.309 225.495 322.757 224.665 321.54 223.446L271.898 173.834H188.5C176.963 173.834 165.899 169.256 157.741 161.105C149.583 152.955 145 141.902 145 130.376V43.4585C145 31.9326 149.583 20.8788 157.741 12.7287C165.899 4.57865 176.963 0 188.5 0V0Z" fill="#8F249E"/>
<path d="M487.936 148H421.12C419.296 148 417.952 147.616 417.088 146.848C416.32 145.984 415.936 144.64 415.936 142.816V49.504C415.936 47.68 416.32 46.384 417.088 45.616C417.952 44.752 419.296 44.32 421.12 44.32H487.936C489.76 44.32 491.056 44.752 491.824 45.616C492.688 46.384 493.12 47.68 493.12 49.504V66.352C493.12 68.176 492.688 69.52 491.824 70.384C491.056 71.152 489.76 71.536 487.936 71.536H448.192V82.624H476.272C478.096 82.624 479.392 83.056 480.16 83.92C481.024 84.688 481.456 85.984 481.456 87.808V103.216C481.456 105.04 481.024 106.384 480.16 107.248C479.392 108.016 478.096 108.4 476.272 108.4H448.192V120.784H487.936C489.76 120.784 491.056 121.216 491.824 122.08C492.688 122.848 493.12 124.144 493.12 125.968V142.816C493.12 144.64 492.688 145.984 491.824 146.848C491.056 147.616 489.76 148 487.936 148ZM571.499 148H534.059C532.235 148 530.699 147.664 529.451 146.992C528.299 146.32 527.387 145.072 526.715 143.248L512.603 107.968C511.739 105.856 511.019 104.032 510.443 102.496C509.867 100.864 509.387 99.328 509.003 97.888C508.619 96.448 508.331 94.96 508.139 93.424C508.043 91.792 507.995 89.824 507.995 87.52V49.504C507.995 47.68 508.379 46.384 509.147 45.616C510.011 44.752 511.355 44.32 513.179 44.32H536.075C537.899 44.32 539.291 44.752 540.251 45.616C541.211 46.384 541.691 47.68 541.691 49.504V89.248C541.691 90.208 541.787 91.168 541.979 92.128C542.171 93.088 542.459 94.096 542.843 95.152L549.611 115.312C549.899 116.272 550.235 116.944 550.619 117.328C551.003 117.616 551.579 117.76 552.347 117.76H553.931C554.699 117.76 555.275 117.616 555.659 117.328C556.043 116.944 556.379 116.272 556.667 115.312L563.435 95.008C563.819 93.952 564.107 92.944 564.299 91.984C564.491 91.024 564.587 90.064 564.587 89.104V49.504C564.587 47.68 564.971 46.384 565.739 45.616C566.603 44.752 567.947 44.32 569.771 44.32H592.379C594.203 44.32 595.499 44.752 596.267 45.616C597.131 46.384 597.563 47.68 597.563 49.504V87.52C597.563 89.824 597.467 91.792 597.275 93.424C597.179 94.96 596.939 96.448 596.555 97.888C596.171 99.328 595.691 100.864 595.115 102.496C594.539 104.032 593.819 105.856 592.955 107.968L578.843 143.248C578.171 145.072 577.211 146.32 575.963 146.992C574.811 147.664 573.323 148 571.499 148ZM703.182 120.784C703.182 125.2 702.51 129.232 701.166 132.88C699.918 136.432 697.614 139.504 694.254 142.096C690.99 144.592 686.43 146.56 680.574 148C674.814 149.44 667.47 150.16 658.542 150.16C649.614 150.16 642.222 149.44 636.366 148C630.51 146.56 625.902 144.592 622.542 142.096C619.278 139.504 616.974 136.432 615.63 132.88C614.382 129.232 613.758 125.2 613.758 120.784V71.68C613.758 67.264 614.382 63.28 615.63 59.728C616.974 56.08 619.278 52.96 622.542 50.368C625.902 47.776 630.51 45.76 636.366 44.32C642.222 42.88 649.614 42.16 658.542 42.16C667.47 42.16 674.814 42.88 680.574 44.32C686.43 45.76 690.99 47.776 694.254 50.368C697.614 52.96 699.918 56.08 701.166 59.728C702.51 63.28 703.182 67.264 703.182 71.68V120.784ZM646.446 115.6C646.446 117.52 647.166 119.152 648.606 120.496C650.046 121.744 653.358 122.368 658.542 122.368C663.726 122.368 667.038 121.744 668.478 120.496C669.918 119.152 670.638 117.52 670.638 115.6V76.864C670.638 75.04 669.918 73.504 668.478 72.256C667.038 70.912 663.726 70.24 658.542 70.24C653.358 70.24 650.046 70.912 648.606 72.256C647.166 73.504 646.446 75.04 646.446 76.864V115.6Z" fill="url(#paint0_linear_11_21)"/>
<defs>
<linearGradient id="paint0_linear_11_21" x1="785" y1="10" x2="785" y2="239" gradientUnits="userSpaceOnUse">
<stop stop-color="#8F249E"/>
<stop offset="1" stop-color="#D1498D"/>
</linearGradient>
</defs>
</svg>
